# xmcd CD database file
#
# Track frame offsets:
#	150
#	19951
#	38543
#	74510
#	101592
#	121888
#	148244
#	177077
#	199686
#	213479
#	240858
#	269358
#	302645
#
# Disc length: 4280 seconds
#
# Revision: 1
# Processed by: cddbd v1.5PL3 Copyright (c) Steve Scherf et al.
# Submitted via: CDex 1.51
#
DISCID=b510b60d
DTITLE=Ray Brown - Best of the Concord Years
DYEAR=2003
DGENRE=Jazz
TTITLE0=Onion Roll
TTITLE1=Gumbo Hump
TTITLE2=High Heel Sneakers
TTITLE3=Put Your Little Foot Right Out
TTITLE4=Ralph's Boogie
TTITLE5=Rockin' In Rhythm
TTITLE6=Lady Be Good
TTITLE7=Blue Bossa
TTITLE8=Like Someone In Love
TTITLE9=The Flintstones Theme
TTITLE10=Take the 'A' Train
TTITLE11=Just Friends
TTITLE12=Captain Bill
EXTD=YEAR: 2003
EXTT0=
EXTT1=
EXTT2=
EXTT3=
EXTT4=
EXTT5=
EXTT6=
EXTT7=
EXTT8=
EXTT9=
EXTT10=
EXTT11=
EXTT12=
PLAYORDER=
